<svg width="21" height="19" viewBox="0 0 21 19" fill="none" xmlns="http://www.w3.org/2000/svg">
<path d="M17.622 10.55L11.965 16.208C11.5899 16.5829 11.0813 16.7936 10.551 16.7936C10.0207 16.7936 9.51204 16.5829 9.13698 16.208L3.47998 10.551C3.01235 10.0874 2.64089 9.53608 2.38691 8.92858C2.13294 8.32108 2.00145 7.6694 2.00001 7.01095C1.99857 6.3525 2.1272 5.70025 2.37851 5.09164C2.62982 4.48304 2.99887 3.93006 3.46447 3.46447C3.93006 2.99887 4.48304 2.62982 5.09164 2.37851C5.70025 2.1272 6.3525 1.99857 7.01095 2.00001C7.6694 2.00145 8.32108 2.13294 8.92858 2.38691C9.53608 2.64089 10.0874 3.01235 10.551 3.47998C11.4926 2.56185 12.7579 2.05165 14.073 2.05989C15.3881 2.06813 16.647 2.59415 17.577 3.52401C18.507 4.45386 19.0332 5.71268 19.0416 7.02776C19.05 8.34284 18.54 9.60829 17.622 10.55Z" stroke="white" stroke-width="2.5" stroke-linecap="round" stroke-linejoin="round"/>
</svg>
