<svg width="18" height="18" viewBox="0 0 18 18" fill="none" xmlns="http://www.w3.org/2000/svg">
<path d="M17 0C17.2652 0 17.5196 0.105357 17.7071 0.292893C17.8946 0.48043 18 0.734784 18 1V17C18 17.2652 17.8946 17.5196 17.7071 17.7071C17.5196 17.8946 17.2652 18 17 18H15C14.7348 18 14.4804 17.8946 14.2929 17.7071C14.1054 17.5196 14 17.2652 14 17V10.1747L1.524 17.8523C1.37245 17.9455 1.19878 17.9966 1.02088 18.0003C0.842993 18.0041 0.667332 17.9602 0.512024 17.8734C0.356717 17.7866 0.227388 17.6599 0.137382 17.5064C0.0473748 17.3529 -5.0094e-05 17.1782 3.97065e-08 17.0003V1.00028C-5.0094e-05 0.822352 0.0473748 0.647631 0.137382 0.494145C0.227388 0.340659 0.356717 0.213968 0.512024 0.127143C0.667332 0.0403172 0.842993 -0.00349781 1.02088 0.000218156C1.19878 0.00393412 1.37245 0.0550465 1.524 0.148282L14 7.82582V1C14 0.734784 14.1054 0.48043 14.2929 0.292893C14.4804 0.105357 14.7348 0 15 0H17Z" fill="#fff"/>
</svg>
