<svg width="15" height="18" viewBox="0 0 15 18" fill="none" xmlns="http://www.w3.org/2000/svg">
<path d="M3.97067e-08 1.00028V17.0003C-5.0094e-05 17.1782 0.0473748 17.3529 0.137382 17.5064C0.227388 17.6599 0.356717 17.7866 0.512024 17.8734C0.667332 17.9602 0.842993 18.0041 1.02088 18.0003C1.19878 17.9966 1.37245 17.9455 1.524 17.8523L14.524 9.85228C14.6696 9.76281 14.7898 9.63752 14.8733 9.48837C14.9567 9.33922 15.0005 9.17118 15.0005 9.00028C15.0005 8.82939 14.9567 8.66135 14.8733 8.51219C14.7898 8.36304 14.6696 8.23775 14.524 8.14828L1.524 0.148282C1.37245 0.0550465 1.19878 0.00393412 1.02088 0.000218156C0.842993 -0.00349781 0.667332 0.0403172 0.512024 0.127143C0.356717 0.213968 0.227388 0.340659 0.137382 0.494145C0.0473748 0.647631 -5.0094e-05 0.822352 3.97067e-08 1.00028Z" fill="black"/>
</svg>
